<?xml version="1.0" encoding="utf-8"?>
<!-- Generator: Adobe Illustrator 18.1.1, SVG Export Plug-In . SVG Version: 6.00 Build 0)  -->
<svg version="1.1" id="Layer_1" xmlns="http://www.w3.org/2000/svg" xmlns:xlink="http://www.w3.org/1999/xlink" x="0px" y="0px"
	 viewBox="0 0 193.4 193.4" enable-background="new 0 0 193.4 193.4" xml:space="preserve">
<g>
	<g>
		<path fill="#FFFFFF" d="M96.7,193.4C43.4,193.4,0,150,0,96.7S43.4,0,96.7,0s96.7,43.4,96.7,96.7S150,193.4,96.7,193.4z M96.7,10.8
			c-47.3,0-85.8,38.5-85.8,85.8c0,47.3,38.5,85.8,85.8,85.8s85.8-38.5,85.8-85.8C182.5,49.4,144,10.8,96.7,10.8z"/>
	</g>
	<path fill="#FFFFFF" d="M77.9,55.5c-3.9-6.4-11.2-10-20.6-10c-8.4,0-15.7,2.8-20.9,8.2l-1.1,1.1l6.5,8.4l1.4-1.5
		c4.6-4.8,11-5.5,14.4-5.5c4.6,0,7.5,1.5,9.3,4.4c1.5,2.5,1.1,5.6,1.1,8.3V69h-0.6c-7,0-15.7,0.1-22.8,2.7
		c-10.1,3.7-13.7,11.5-13.7,17.4c0,8.4,6.6,17.3,19.7,17.3c6.2,0,11.4-1.9,17.4-5.6v4.1h13V69.4C81,64.5,80.7,60,77.9,55.5z
		 M52.4,96.2c-6.4,0-9.5-3.9-9.5-7.7c0-1.6,0.6-3.3,2-4.8c1.3-1.5,3.4-2.9,6.5-3.6c3.1-0.7,7.5-0.9,10.9-0.9c1.2,0,5.7,0.1,5.7,0.1
		v3C68,91.8,58.9,96.2,52.4,96.2z"/>
	<g>
		
			<rect x="91.3" y="28.7" transform="matrix(0.9428 0.3333 -0.3333 0.9428 37.7561 -26.698)" fill="#FFFFFF" width="10.8" height="135.9"/>
	</g>
	<path fill="#FFFFFF" d="M132.1,69h-3.4L103,142h11.5l6.7-21h19.3l7.6,21h11.9L132.1,69z M124,112l6.4-19.1l7.1,19.1H124z"/>
</g>
<g>
</g>
<g>
</g>
<g>
</g>
<g>
</g>
<g>
</g>
<g>
</g>
<g>
</g>
<g>
</g>
<g>
</g>
<g>
</g>
<g>
</g>
<g>
</g>
<g>
</g>
<g>
</g>
<g>
</g>
</svg>
